<svg xmlns="http://www.w3.org/2000/svg" width="920" height="300" viewBox="0 0 920 300" role="img" aria-label="Jiahuo Lao - AI Infra, LLM, Embodied Intelligence">
<style>
  @keyframes breathe { 0%,100% { opacity:.32 } 50% { opacity:.65 } }
  @keyframes flow { to { stroke-dashoffset: -320 } }
  @keyframes drift { 0%,100% { transform: translate(0,0) } 50% { transform: translate(8px,-6px) } }
  .glow   { animation: breathe 7s ease-in-out infinite }
  .line   { stroke-dasharray: 6 10; animation: flow 14s linear infinite }
  .dots   { animation: drift 18s ease-in-out infinite }
</style>
<defs>
  <linearGradient id="edge" x1="0" y1="0" x2="1" y2="0">
    <stop offset="0" stop-color="#3FB950" stop-opacity="0"/>
    <stop offset=".5" stop-color="#3FB950" stop-opacity=".55"/>
    <stop offset="1" stop-color="#3FB950" stop-opacity="0"/>
  </linearGradient>
  <radialGradient id="orb" cx=".5" cy=".5" r=".5">
    <stop offset="0" stop-color="#3FB950" stop-opacity=".22"/>
    <stop offset="1" stop-color="#3FB950" stop-opacity="0"/>
  </radialGradient>
</defs>

<rect width="920" height="300" rx="18" fill="#0B0E13"/>
<g class="dots"><circle cx="26" cy="21" r="1" fill="#E6EDF3" opacity="0.1"/>
  <circle cx="22" cy="56" r="1" fill="#E6EDF3" opacity="0.05"/>
  <circle cx="26" cy="94" r="1" fill="#E6EDF3" opacity="0.14"/>
  <circle cx="21" cy="123" r="1" fill="#E6EDF3" opacity="0.08"/>
  <circle cx="22" cy="161" r="1" fill="#E6EDF3" opacity="0.08"/>
  <circle cx="26" cy="196" r="1.5" fill="#E6EDF3" opacity="0.08"/>
  <circle cx="24" cy="229" r="1" fill="#E6EDF3" opacity="0.05"/>
  <circle cx="27" cy="265" r="1" fill="#E6EDF3" opacity="0.14"/>
  <circle cx="57" cy="23" r="1" fill="#E6EDF3" opacity="0.08"/>
  <circle cx="61" cy="57" r="1" fill="#E6EDF3" opacity="0.05"/>
  <circle cx="58" cy="89" r="1" fill="#E6EDF3" opacity="0.1"/>
  <circle cx="59" cy="125" r="1" fill="#E6EDF3" opacity="0.14"/>
  <circle cx="59" cy="157" r="1.5" fill="#E6EDF3" opacity="0.05"/>
  <circle cx="59" cy="193" r="1" fill="#E6EDF3" opacity="0.08"/>
  <circle cx="60" cy="225" r="1" fill="#E6EDF3" opacity="0.08"/>
  <circle cx="61" cy="261" r="1" fill="#E6EDF3" opacity="0.08"/>
  <circle cx="95" cy="21" r="1.5" fill="#E6EDF3" opacity="0.1"/>
  <circle cx="92" cy="60" r="1" fill="#E6EDF3" opacity="0.08"/>
  <circle cx="91" cy="91" r="1" fill="#E6EDF3" opacity="0.1"/>
  <circle cx="94" cy="128" r="1" fill="#E6EDF3" opacity="0.08"/>
  <circle cx="93" cy="162" r="1" fill="#E6EDF3" opacity="0.08"/>
  <circle cx="92" cy="194" r="1" fill="#E6EDF3" opacity="0.08"/>
  <circle cx="94" cy="227" r="1" fill="#E6EDF3" opacity="0.08"/>
  <circle cx="95" cy="259" r="1" fill="#E6EDF3" opacity="0.14"/>
  <circle cx="125" cy="21" r="1" fill="#E6EDF3" opacity="0.1"/>
  <circle cx="124" cy="60" r="1.5" fill="#E6EDF3" opacity="0.14"/>
  <circle cx="128" cy="92" r="1" fill="#E6EDF3" opacity="0.1"/>
  <circle cx="124" cy="124" r="1" fill="#E6EDF3" opacity="0.14"/>
  <circle cx="127" cy="160" r="1" fill="#E6EDF3" opacity="0.08"/>
  <circle cx="124" cy="195" r="1.5" fill="#E6EDF3" opacity="0.05"/>
  <circle cx="129" cy="225" r="1" fill="#E6EDF3" opacity="0.08"/>
  <circle cx="128" cy="260" r="1.5" fill="#E6EDF3" opacity="0.05"/>
  <circle cx="160" cy="24" r="1.5" fill="#E6EDF3" opacity="0.1"/>
  <circle cx="161" cy="61" r="1" fill="#E6EDF3" opacity="0.05"/>
  <circle cx="162" cy="93" r="1" fill="#E6EDF3" opacity="0.1"/>
  <circle cx="157" cy="125" r="1.5" fill="#E6EDF3" opacity="0.08"/>
  <circle cx="160" cy="157" r="1" fill="#E6EDF3" opacity="0.08"/>
  <circle cx="161" cy="191" r="1" fill="#E6EDF3" opacity="0.08"/>
  <circle cx="158" cy="227" r="1" fill="#E6EDF3" opacity="0.05"/>
  <circle cx="161" cy="261" r="1.5" fill="#E6EDF3" opacity="0.05"/>
  <circle cx="191" cy="23" r="1" fill="#E6EDF3" opacity="0.08"/>
  <circle cx="191" cy="56" r="1" fill="#E6EDF3" opacity="0.05"/>
  <circle cx="196" cy="92" r="1" fill="#E6EDF3" opacity="0.08"/>
  <circle cx="192" cy="128" r="1.5" fill="#E6EDF3" opacity="0.08"/>
  <circle cx="193" cy="161" r="1.5" fill="#E6EDF3" opacity="0.08"/>
  <circle cx="195" cy="197" r="1" fill="#E6EDF3" opacity="0.1"/>
  <circle cx="194" cy="230" r="1" fill="#E6EDF3" opacity="0.14"/>
  <circle cx="195" cy="262" r="1" fill="#E6EDF3" opacity="0.08"/>
  <circle cx="226" cy="21" r="1" fill="#E6EDF3" opacity="0.05"/>
  <circle cx="229" cy="59" r="1" fill="#E6EDF3" opacity="0.08"/>
  <circle cx="225" cy="89" r="1" fill="#E6EDF3" opacity="0.08"/>
  <circle cx="225" cy="123" r="1" fill="#E6EDF3" opacity="0.05"/>
  <circle cx="229" cy="158" r="1" fill="#E6EDF3" opacity="0.14"/>
  <circle cx="226" cy="195" r="1" fill="#E6EDF3" opacity="0.14"/>
  <circle cx="226" cy="231" r="1.5" fill="#E6EDF3" opacity="0.14"/>
  <circle cx="226" cy="259" r="1" fill="#E6EDF3" opacity="0.14"/>
  <circle cx="261" cy="24" r="1.5" fill="#E6EDF3" opacity="0.14"/>
  <circle cx="265" cy="60" r="1" fill="#E6EDF3" opacity="0.05"/>
  <circle cx="259" cy="92" r="1" fill="#E6EDF3" opacity="0.05"/>
  <circle cx="260" cy="124" r="1" fill="#E6EDF3" opacity="0.14"/>
  <circle cx="260" cy="160" r="1" fill="#E6EDF3" opacity="0.1"/>
  <circle cx="262" cy="192" r="1" fill="#E6EDF3" opacity="0.14"/>
  <circle cx="265" cy="231" r="1" fill="#E6EDF3" opacity="0.05"/>
  <circle cx="264" cy="263" r="1" fill="#E6EDF3" opacity="0.05"/>
  <circle cx="299" cy="27" r="1" fill="#E6EDF3" opacity="0.08"/>
  <circle cx="296" cy="58" r="1.5" fill="#E6EDF3" opacity="0.08"/>
  <circle cx="299" cy="92" r="1" fill="#E6EDF3" opacity="0.08"/>
  <circle cx="296" cy="123" r="1.5" fill="#E6EDF3" opacity="0.1"/>
  <circle cx="299" cy="163" r="1.5" fill="#E6EDF3" opacity="0.1"/>
  <circle cx="296" cy="196" r="1.5" fill="#E6EDF3" opacity="0.08"/>
  <circle cx="294" cy="227" r="1" fill="#E6EDF3" opacity="0.05"/>
  <circle cx="297" cy="264" r="1" fill="#E6EDF3" opacity="0.1"/>
  <circle cx="327" cy="21" r="1.5" fill="#E6EDF3" opacity="0.08"/>
  <circle cx="327" cy="59" r="1" fill="#E6EDF3" opacity="0.08"/>
  <circle cx="327" cy="93" r="1" fill="#E6EDF3" opacity="0.08"/>
  <circle cx="330" cy="123" r="1" fill="#E6EDF3" opacity="0.05"/>
  <circle cx="331" cy="157" r="1.5" fill="#E6EDF3" opacity="0.1"/>
  <circle cx="329" cy="192" r="1" fill="#E6EDF3" opacity="0.08"/>
  <circle cx="329" cy="228" r="1" fill="#E6EDF3" opacity="0.1"/>
  <circle cx="330" cy="261" r="1" fill="#E6EDF3" opacity="0.05"/>
  <circle cx="364" cy="25" r="1" fill="#E6EDF3" opacity="0.05"/>
  <circle cx="365" cy="56" r="1" fill="#E6EDF3" opacity="0.08"/>
  <circle cx="363" cy="89" r="1" fill="#E6EDF3" opacity="0.1"/>
  <circle cx="363" cy="124" r="1.5" fill="#E6EDF3" opacity="0.1"/>
  <circle cx="365" cy="163" r="1" fill="#E6EDF3" opacity="0.1"/>
  <circle cx="366" cy="191" r="1" fill="#E6EDF3" opacity="0.1"/>
  <circle cx="361" cy="225" r="1" fill="#E6EDF3" opacity="0.1"/>
  <circle cx="363" cy="263" r="1" fill="#E6EDF3" opacity="0.1"/>
  <circle cx="396" cy="26" r="1" fill="#E6EDF3" opacity="0.14"/>
  <circle cx="397" cy="61" r="1" fill="#E6EDF3" opacity="0.05"/>
  <circle cx="400" cy="92" r="1" fill="#E6EDF3" opacity="0.05"/>
  <circle cx="395" cy="125" r="1" fill="#E6EDF3" opacity="0.1"/>
  <circle cx="396" cy="162" r="1.5" fill="#E6EDF3" opacity="0.14"/>
  <circle cx="399" cy="191" r="1" fill="#E6EDF3" opacity="0.05"/>
  <circle cx="400" cy="226" r="1" fill="#E6EDF3" opacity="0.1"/>
  <circle cx="399" cy="263" r="1" fill="#E6EDF3" opacity="0.14"/>
  <circle cx="430" cy="21" r="1" fill="#E6EDF3" opacity="0.1"/>
  <circle cx="435" cy="61" r="1" fill="#E6EDF3" opacity="0.1"/>
  <circle cx="430" cy="94" r="1" fill="#E6EDF3" opacity="0.05"/>
  <circle cx="431" cy="129" r="1.5" fill="#E6EDF3" opacity="0.08"/>
  <circle cx="430" cy="163" r="1" fill="#E6EDF3" opacity="0.08"/>
  <circle cx="432" cy="191" r="1" fill="#E6EDF3" opacity="0.1"/>
  <circle cx="435" cy="228" r="1" fill="#E6EDF3" opacity="0.1"/>
  <circle cx="430" cy="265" r="1" fill="#E6EDF3" opacity="0.14"/>
  <circle cx="469" cy="21" r="1.5" fill="#E6EDF3" opacity="0.08"/>
  <circle cx="464" cy="61" r="1.5" fill="#E6EDF3" opacity="0.1"/>
  <circle cx="465" cy="95" r="1" fill="#E6EDF3" opacity="0.08"/>
  <circle cx="463" cy="128" r="1" fill="#E6EDF3" opacity="0.14"/>
  <circle cx="465" cy="159" r="1" fill="#E6EDF3" opacity="0.1"/>
  <circle cx="465" cy="196" r="1.5" fill="#E6EDF3" opacity="0.1"/>
  <circle cx="463" cy="225" r="1" fill="#E6EDF3" opacity="0.08"/>
  <circle cx="467" cy="261" r="1" fill="#E6EDF3" opacity="0.05"/>
  <circle cx="501" cy="24" r="1" fill="#E6EDF3" opacity="0.1"/>
  <circle cx="500" cy="59" r="1" fill="#E6EDF3" opacity="0.14"/>
  <circle cx="501" cy="90" r="1" fill="#E6EDF3" opacity="0.05"/>
  <circle cx="502" cy="126" r="1" fill="#E6EDF3" opacity="0.08"/>
  <circle cx="499" cy="160" r="1" fill="#E6EDF3" opacity="0.1"/>
  <circle cx="501" cy="193" r="1" fill="#E6EDF3" opacity="0.1"/>
  <circle cx="501" cy="227" r="1.5" fill="#E6EDF3" opacity="0.1"/>
  <circle cx="500" cy="264" r="1" fill="#E6EDF3" opacity="0.08"/>
  <circle cx="532" cy="24" r="1.5" fill="#E6EDF3" opacity="0.08"/>
  <circle cx="535" cy="59" r="1" fill="#E6EDF3" opacity="0.14"/>
  <circle cx="535" cy="95" r="1" fill="#E6EDF3" opacity="0.1"/>
  <circle cx="533" cy="124" r="1.5" fill="#E6EDF3" opacity="0.1"/>
  <circle cx="534" cy="160" r="1.5" fill="#E6EDF3" opacity="0.08"/>
  <circle cx="535" cy="194" r="1" fill="#E6EDF3" opacity="0.05"/>
  <circle cx="533" cy="229" r="1" fill="#E6EDF3" opacity="0.05"/>
  <circle cx="537" cy="265" r="1" fill="#E6EDF3" opacity="0.1"/>
  <circle cx="566" cy="27" r="1" fill="#E6EDF3" opacity="0.08"/>
  <circle cx="565" cy="55" r="1" fill="#E6EDF3" opacity="0.14"/>
  <circle cx="569" cy="95" r="1" fill="#E6EDF3" opacity="0.14"/>
  <circle cx="568" cy="128" r="1" fill="#E6EDF3" opacity="0.14"/>
  <circle cx="568" cy="160" r="1" fill="#E6EDF3" opacity="0.08"/>
  <circle cx="570" cy="196" r="1" fill="#E6EDF3" opacity="0.05"/>
  <circle cx="571" cy="228" r="1" fill="#E6EDF3" opacity="0.08"/>
  <circle cx="571" cy="264" r="1.5" fill="#E6EDF3" opacity="0.05"/>
  <circle cx="603" cy="22" r="1" fill="#E6EDF3" opacity="0.14"/>
  <circle cx="600" cy="61" r="1.5" fill="#E6EDF3" opacity="0.1"/>
  <circle cx="605" cy="92" r="1.5" fill="#E6EDF3" opacity="0.14"/>
  <circle cx="600" cy="128" r="1.5" fill="#E6EDF3" opacity="0.14"/>
  <circle cx="601" cy="163" r="1" fill="#E6EDF3" opacity="0.1"/>
  <circle cx="605" cy="197" r="1.5" fill="#E6EDF3" opacity="0.08"/>
  <circle cx="601" cy="228" r="1" fill="#E6EDF3" opacity="0.1"/>
  <circle cx="600" cy="261" r="1" fill="#E6EDF3" opacity="0.1"/>
  <circle cx="637" cy="21" r="1" fill="#E6EDF3" opacity="0.08"/>
  <circle cx="634" cy="58" r="1" fill="#E6EDF3" opacity="0.08"/>
  <circle cx="633" cy="92" r="1.5" fill="#E6EDF3" opacity="0.1"/>
  <circle cx="637" cy="126" r="1.5" fill="#E6EDF3" opacity="0.05"/>
  <circle cx="634" cy="163" r="1.5" fill="#E6EDF3" opacity="0.14"/>
  <circle cx="639" cy="195" r="1" fill="#E6EDF3" opacity="0.14"/>
  <circle cx="636" cy="225" r="1" fill="#E6EDF3" opacity="0.1"/>
  <circle cx="639" cy="262" r="1.5" fill="#E6EDF3" opacity="0.08"/>
  <circle cx="670" cy="22" r="1" fill="#E6EDF3" opacity="0.14"/>
  <circle cx="670" cy="55" r="1.5" fill="#E6EDF3" opacity="0.1"/>
  <circle cx="672" cy="94" r="1.5" fill="#E6EDF3" opacity="0.08"/>
  <circle cx="673" cy="126" r="1" fill="#E6EDF3" opacity="0.05"/>
  <circle cx="670" cy="161" r="1" fill="#E6EDF3" opacity="0.05"/>
  <circle cx="672" cy="194" r="1" fill="#E6EDF3" opacity="0.14"/>
  <circle cx="668" cy="225" r="1" fill="#E6EDF3" opacity="0.14"/>
  <circle cx="669" cy="260" r="1.5" fill="#E6EDF3" opacity="0.1"/>
  <circle cx="703" cy="27" r="1.5" fill="#E6EDF3" opacity="0.1"/>
  <circle cx="707" cy="61" r="1.5" fill="#E6EDF3" opacity="0.1"/>
  <circle cx="707" cy="89" r="1.5" fill="#E6EDF3" opacity="0.05"/>
  <circle cx="706" cy="127" r="1" fill="#E6EDF3" opacity="0.1"/>
  <circle cx="702" cy="162" r="1" fill="#E6EDF3" opacity="0.05"/>
  <circle cx="707" cy="191" r="1" fill="#E6EDF3" opacity="0.08"/>
  <circle cx="707" cy="225" r="1" fill="#E6EDF3" opacity="0.08"/>
  <circle cx="702" cy="262" r="1" fill="#E6EDF3" opacity="0.08"/>
  <circle cx="738" cy="26" r="1" fill="#E6EDF3" opacity="0.1"/>
  <circle cx="736" cy="59" r="1" fill="#E6EDF3" opacity="0.08"/>
  <circle cx="737" cy="89" r="1" fill="#E6EDF3" opacity="0.1"/>
  <circle cx="739" cy="128" r="1.5" fill="#E6EDF3" opacity="0.14"/>
  <circle cx="740" cy="158" r="1" fill="#E6EDF3" opacity="0.08"/>
  <circle cx="735" cy="196" r="1" fill="#E6EDF3" opacity="0.05"/>
  <circle cx="741" cy="229" r="1" fill="#E6EDF3" opacity="0.1"/>
  <circle cx="739" cy="262" r="1" fill="#E6EDF3" opacity="0.05"/>
  <circle cx="773" cy="26" r="1" fill="#E6EDF3" opacity="0.05"/>
  <circle cx="775" cy="58" r="1.5" fill="#E6EDF3" opacity="0.05"/>
  <circle cx="772" cy="91" r="1.5" fill="#E6EDF3" opacity="0.08"/>
  <circle cx="772" cy="124" r="1" fill="#E6EDF3" opacity="0.14"/>
  <circle cx="772" cy="160" r="1" fill="#E6EDF3" opacity="0.1"/>
  <circle cx="775" cy="192" r="1" fill="#E6EDF3" opacity="0.1"/>
  <circle cx="772" cy="226" r="1.5" fill="#E6EDF3" opacity="0.14"/>
  <circle cx="771" cy="259" r="1.5" fill="#E6EDF3" opacity="0.1"/>
  <circle cx="804" cy="24" r="1" fill="#E6EDF3" opacity="0.1"/>
  <circle cx="809" cy="57" r="1" fill="#E6EDF3" opacity="0.1"/>
  <circle cx="807" cy="94" r="1" fill="#E6EDF3" opacity="0.05"/>
  <circle cx="807" cy="124" r="1" fill="#E6EDF3" opacity="0.08"/>
  <circle cx="808" cy="160" r="1.5" fill="#E6EDF3" opacity="0.08"/>
  <circle cx="808" cy="194" r="1.5" fill="#E6EDF3" opacity="0.14"/>
  <circle cx="809" cy="225" r="1" fill="#E6EDF3" opacity="0.1"/>
  <circle cx="804" cy="262" r="1" fill="#E6EDF3" opacity="0.1"/>
  <circle cx="842" cy="25" r="1" fill="#E6EDF3" opacity="0.14"/>
  <circle cx="841" cy="59" r="1" fill="#E6EDF3" opacity="0.14"/>
  <circle cx="842" cy="93" r="1" fill="#E6EDF3" opacity="0.1"/>
  <circle cx="842" cy="126" r="1" fill="#E6EDF3" opacity="0.1"/>
  <circle cx="839" cy="158" r="1" fill="#E6EDF3" opacity="0.08"/>
  <circle cx="839" cy="191" r="1" fill="#E6EDF3" opacity="0.08"/>
  <circle cx="838" cy="230" r="1.5" fill="#E6EDF3" opacity="0.1"/>
  <circle cx="842" cy="263" r="1" fill="#E6EDF3" opacity="0.05"/>
  <circle cx="877" cy="22" r="1" fill="#E6EDF3" opacity="0.08"/>
  <circle cx="873" cy="56" r="1" fill="#E6EDF3" opacity="0.05"/>
  <circle cx="876" cy="93" r="1" fill="#E6EDF3" opacity="0.1"/>
  <circle cx="871" cy="123" r="1" fill="#E6EDF3" opacity="0.08"/>
  <circle cx="876" cy="163" r="1.5" fill="#E6EDF3" opacity="0.05"/>
  <circle cx="877" cy="191" r="1" fill="#E6EDF3" opacity="0.14"/>
  <circle cx="874" cy="228" r="1" fill="#E6EDF3" opacity="0.08"/>
  <circle cx="871" cy="261" r="1.5" fill="#E6EDF3" opacity="0.05"/></g>

<!-- 呼吸光晕（右上方） -->
<circle class="glow" cx="730" cy="74" r="150" fill="url(#orb)"/>

<!-- 流动光线（左侧竖向强调线） -->
<rect x="56" y="86" width="3" height="76" rx="1.5" fill="#3FB950"/>

<!-- 名字 -->
<text x="80" y="118" font-family="-apple-system, 'Segoe UI', 'PingFang SC', sans-serif"
      font-size="44" font-weight="700" letter-spacing=".5" fill="#E6EDF3">Jiahuo Lao</text>
<text x="80" y="148" font-family="-apple-system, 'Segoe UI', 'PingFang SC', sans-serif"
      font-size="15" font-weight="500" fill="#8B949E">老家伙 · 杭州 · UTC+08:00</text>

<!-- 方向标签 -->
<text x="80" y="196" font-family="Menlo, Consolas, monospace"
      font-size="17" font-weight="500" letter-spacing="1" fill="#3FB950">AI Infra · LLM · 具身智能</text>

<!-- 底部流动细线 -->
<path class="line" d="M 56 246 H 864" stroke="url(#edge)" stroke-width="1.5" fill="none"/>
<text x="864" y="236" text-anchor="end" font-family="Menlo, Consolas, monospace"
      font-size="11" fill="#8B949E" letter-spacing="2">TRAIN · SERVE · EMBODY</text>
</svg>