<svg xmlns="http://www.w3.org/2000/svg" width="744" height="236" viewBox="0 0 744 236" role="img" aria-label="作息分析">
<style>
@keyframes fadein{from{opacity:0}to{opacity:1}}
@keyframes pulse{0%,100%{opacity:.4}50%{opacity:1}}
</style>
<circle cx="28" cy="41" r="3" fill="#3fb950" style="animation:pulse 2s ease infinite"/>
<text x="40" y="45" font-family="-apple-system,'Segoe UI','PingFang SC','Microsoft YaHei',sans-serif" font-size="15" font-weight="600" fill="#f0f6fc">作息分析</text>
<text x="128" y="45" font-family="-apple-system,'Segoe UI','PingFang SC','Microsoft YaHei',sans-serif" font-size="11" fill="#6e7681">ACTIVITY CLOCK</text>
<text x="718" y="45" text-anchor="end" font-family="-apple-system,'Segoe UI','PingFang SC','Microsoft YaHei',sans-serif" font-size="11" fill="#8b949e">近 90 天 · 92 次活动</text>
<path d="M 117.1 68.0 A 54 54 0 0 1 128.9 69.6" fill="none" stroke="#3fb950" stroke-width="12" stroke-linecap="butt" opacity="0.93" style="animation:fadein .5s ease 0.15s backwards;"/>
<path d="M 131.1 70.1 A 54 54 0 0 1 142.0 74.7" fill="none" stroke="#3fb950" stroke-width="12" stroke-linecap="butt" opacity="0.55" style="animation:fadein .5s ease 0.19s backwards;"/>
<path d="M 144.0 75.8 A 54 54 0 0 1 153.4 83.0" fill="none" stroke="#3fb950" stroke-width="12" stroke-linecap="butt" opacity="0.14" style="animation:fadein .5s ease 0.22999999999999998s backwards;"/>
<path d="M 155.0 84.6 A 54 54 0 0 1 162.2 94.0" fill="none" stroke="#3fb950" stroke-width="12" stroke-linecap="butt" opacity="0.14" style="animation:fadein .5s ease 0.27s backwards;"/>
<path d="M 163.3 96.0 A 54 54 0 0 1 167.9 106.9" fill="none" stroke="#3fb950" stroke-width="12" stroke-linecap="butt" opacity="0.14" style="animation:fadein .5s ease 0.31s backwards;"/>
<path d="M 168.4 109.1 A 54 54 0 0 1 170.0 120.9" fill="none" stroke="#3fb950" stroke-width="12" stroke-linecap="butt" opacity="0.14" style="animation:fadein .5s ease 0.35s backwards;"/>
<path d="M 170.0 123.1 A 54 54 0 0 1 168.4 134.9" fill="none" stroke="#3fb950" stroke-width="12" stroke-linecap="butt" opacity="0.14" style="animation:fadein .5s ease 0.39s backwards;"/>
<path d="M 167.9 137.1 A 54 54 0 0 1 163.3 148.0" fill="none" stroke="#3fb950" stroke-width="12" stroke-linecap="butt" opacity="0.34" style="animation:fadein .5s ease 0.43000000000000005s backwards;"/>
<path d="M 162.2 150.0 A 54 54 0 0 1 155.0 159.4" fill="none" stroke="#3fb950" stroke-width="12" stroke-linecap="butt" opacity="0.43" style="animation:fadein .5s ease 0.47s backwards;"/>
<path d="M 153.4 161.0 A 54 54 0 0 1 144.0 168.2" fill="none" stroke="#3fb950" stroke-width="12" stroke-linecap="butt" opacity="0.43" style="animation:fadein .5s ease 0.51s backwards;"/>
<path d="M 142.0 169.3 A 54 54 0 0 1 131.1 173.9" fill="none" stroke="#3fb950" stroke-width="12" stroke-linecap="butt" opacity="0.55" style="animation:fadein .5s ease 0.55s backwards;"/>
<path d="M 128.9 174.4 A 54 54 0 0 1 117.1 176.0" fill="none" stroke="#3fb950" stroke-width="12" stroke-linecap="butt" opacity="0.49" style="animation:fadein .5s ease 0.59s backwards;"/>
<path d="M 114.9 176.0 A 54 54 0 0 1 103.1 174.4" fill="none" stroke="#3fb950" stroke-width="12" stroke-linecap="butt" opacity="0.49" style="animation:fadein .5s ease 0.63s backwards;"/>
<path d="M 100.9 173.9 A 54 54 0 0 1 90.0 169.3" fill="none" stroke="#3fb950" stroke-width="12" stroke-linecap="butt" opacity="0.64" style="animation:fadein .5s ease 0.67s backwards;"/>
<path d="M 88.0 168.2 A 54 54 0 0 1 78.6 161.0" fill="none" stroke="#3fb950" stroke-width="12" stroke-linecap="butt" opacity="1.00" style="animation:pulse 2s ease infinite;"/>
<path d="M 77.0 159.4 A 54 54 0 0 1 69.8 150.0" fill="none" stroke="#3fb950" stroke-width="12" stroke-linecap="butt" opacity="0.55" style="animation:fadein .5s ease 0.75s backwards;"/>
<path d="M 68.7 148.0 A 54 54 0 0 1 64.1 137.1" fill="none" stroke="#3fb950" stroke-width="12" stroke-linecap="butt" opacity="0.49" style="animation:fadein .5s ease 0.79s backwards;"/>
<path d="M 63.6 134.9 A 54 54 0 0 1 62.0 123.1" fill="none" stroke="#3fb950" stroke-width="12" stroke-linecap="butt" opacity="0.71" style="animation:fadein .5s ease 0.8300000000000001s backwards;"/>
<path d="M 62.0 120.9 A 54 54 0 0 1 63.6 109.1" fill="none" stroke="#3fb950" stroke-width="12" stroke-linecap="butt" opacity="0.55" style="animation:fadein .5s ease 0.87s backwards;"/>
<path d="M 64.1 106.9 A 54 54 0 0 1 68.7 96.0" fill="none" stroke="#3fb950" stroke-width="12" stroke-linecap="butt" opacity="0.34" style="animation:fadein .5s ease 0.91s backwards;"/>
<path d="M 69.8 94.0 A 54 54 0 0 1 77.0 84.6" fill="none" stroke="#3fb950" stroke-width="12" stroke-linecap="butt" opacity="0.14" style="animation:fadein .5s ease 0.9500000000000001s backwards;"/>
<path d="M 78.6 83.0 A 54 54 0 0 1 88.0 75.8" fill="none" stroke="#3fb950" stroke-width="12" stroke-linecap="butt" opacity="0.49" style="animation:fadein .5s ease 0.99s backwards;"/>
<path d="M 90.0 74.7 A 54 54 0 0 1 100.9 70.1" fill="none" stroke="#3fb950" stroke-width="12" stroke-linecap="butt" opacity="0.49" style="animation:fadein .5s ease 1.03s backwards;"/>
<path d="M 103.1 69.6 A 54 54 0 0 1 114.9 68.0" fill="none" stroke="#3fb950" stroke-width="12" stroke-linecap="butt" opacity="0.71" style="animation:fadein .5s ease 1.07s backwards;"/>
<text x="189.0" y="125.0" text-anchor="middle" font-family="-apple-system,'Segoe UI','PingFang SC','Microsoft YaHei',sans-serif" font-size="9" fill="#6e7681">6点</text>
<text x="116.0" y="198.0" text-anchor="middle" font-family="-apple-system,'Segoe UI','PingFang SC','Microsoft YaHei',sans-serif" font-size="9" fill="#6e7681">12点</text>
<text x="43.0" y="125.0" text-anchor="middle" font-family="-apple-system,'Segoe UI','PingFang SC','Microsoft YaHei',sans-serif" font-size="9" fill="#6e7681">18点</text>
<text x="116" y="118" text-anchor="middle" font-family="-apple-system,'Segoe UI','PingFang SC','Microsoft YaHei',sans-serif" font-size="15" font-weight="700" fill="#f0f6fc">下午型</text>
<text x="116" y="136" text-anchor="middle" font-family="-apple-system,'Segoe UI','PingFang SC','Microsoft YaHei',sans-serif" font-size="9" fill="#8b949e">14:00 最活跃</text>
<text x="262" y="92" font-family="-apple-system,'Segoe UI','PingFang SC','Microsoft YaHei',sans-serif" font-size="12" fill="#8b949e">峰值时段</text>
<text x="716" y="92" text-anchor="end" font-family="-apple-system,'Segoe UI','PingFang SC','Microsoft YaHei',sans-serif" font-size="13" font-weight="600" fill="#f0f6fc">14:00 – 14:59</text>
<text x="262" y="122" font-family="-apple-system,'Segoe UI','PingFang SC','Microsoft YaHei',sans-serif" font-size="12" fill="#8b949e">黄金输出窗</text>
<text x="716" y="122" text-anchor="end" font-family="-apple-system,'Segoe UI','PingFang SC','Microsoft YaHei',sans-serif" font-size="13" font-weight="600" fill="#f0f6fc">13:00 – 16:00</text>
<text x="262" y="152" font-family="-apple-system,'Segoe UI','PingFang SC','Microsoft YaHei',sans-serif" font-size="12" fill="#8b949e">夜猫子指数</text>
<text x="716" y="152" text-anchor="end" font-family="-apple-system,'Segoe UI','PingFang SC','Microsoft YaHei',sans-serif" font-size="13" font-weight="600" fill="#f0f6fc">33%</text>
<text x="262" y="182" font-family="-apple-system,'Segoe UI','PingFang SC','Microsoft YaHei',sans-serif" font-size="12" fill="#8b949e">活动样本</text>
<text x="716" y="182" text-anchor="end" font-family="-apple-system,'Segoe UI','PingFang SC','Microsoft YaHei',sans-serif" font-size="13" font-weight="600" fill="#f0f6fc">92 次</text>
<text x="262" y="212" font-family="-apple-system,'Segoe UI','PingFang SC','Microsoft YaHei',sans-serif" font-size="10" fill="#8b949e">“稳定输出，午后是主战场”</text>
</svg>
